<?xml version="1.0" encoding="utf-8" standalone="no"?>
<!DOCTYPE svg PUBLIC "-//W3C//DTD SVG 1.1//EN"
  "http://www.w3.org/Graphics/SVG/1.1/DTD/svg11.dtd">
<svg xmlns:xlink="http://www.w3.org/1999/xlink" width="856.494687pt" height="712.475625pt" viewBox="0 0 856.494687 712.475625" xmlns="http://www.w3.org/2000/svg" version="1.1">
 <metadata>
  <rdf:RDF xmlns:dc="http://purl.org/dc/elements/1.1/" xmlns:cc="http://creativecommons.org/ns#" xmlns:rdf="http://www.w3.org/1999/02/22-rdf-syntax-ns#">
   <cc:Work>
    <dc:type rdf:resource="http://purl.org/dc/dcmitype/StillImage"/>
    <dc:date>2025-01-08T21:51:36.989651</dc:date>
    <dc:format>image/svg+xml</dc:format>
    <dc:creator>
     <cc:Agent>
      <dc:title>Matplotlib v3.8.0, https://matplotlib.org/</dc:title>
     </cc:Agent>
    </dc:creator>
   </cc:Work>
  </rdf:RDF>
 </metadata>
 <defs>
  <style type="text/css">*{stroke-linejoin: round; stroke-linecap: butt}</style>
 </defs>
 <g id="figure_1">
  <g id="patch_1">
   <path d="M 0 712.475625 
L 856.494687 712.475625 
L 856.494687 0 
L 0 0 
z
" style="fill: #ffffff"/>
  </g>
  <g id="axes_1">
   <g id="patch_2">
    <path d="M 55.154688 321.341875 
L 849.294688 321.341875 
L 849.294688 21.935625 
L 55.154688 21.935625 
z
" style="fill: #ffffff"/>
   </g>
   <g id="matplotlib.axis_1">
    <g id="xtick_1">
     <g id="line2d_1">
      <path d="M 91.25196 321.341875 
L 91.25196 21.935625 
" clip-path="url(#p52e5a52b19)" style="fill: none; stroke: #b0b0b0; stroke-width: 0.8; stroke-linecap: square"/>
     </g>
     <g id="line2d_2">
      <defs>
       <path id="m9fbeb54d39" d="M 0 0 
L 0 3.5 
" style="stroke: #000000; stroke-width: 0.8"/>
      </defs>
      <g>
       <use xlink:href="#m9fbeb54d39" x="91.25196" y="321.341875" style="stroke: #000000; stroke-width: 0.8"/>
      </g>
     </g>
     <g id="text_1">
      <!-- 0 -->
      <g transform="translate(88.471491 335.499687) scale(0.1 -0.1)">
       <defs>
        <path id="ArialUnicodeMS-30" d="M 1778 4603 
Q 3272 4603 3272 2259 
Q 3272 1075 2886 498 
Q 2500 -78 1778 -78 
Q 288 -78 288 2259 
Q 288 3444 673 4023 
Q 1059 4603 1778 4603 
z
M 1778 384 
Q 2231 384 2462 823 
Q 2694 1263 2694 2259 
Q 2694 2953 2592 3351 
Q 2491 3750 2286 3945 
Q 2081 4141 1772 4141 
Q 1319 4141 1091 3694 
Q 863 3247 863 2259 
Q 863 1575 966 1175 
Q 1069 775 1272 579 
Q 1475 384 1778 384 
z
" transform="scale(0.015625)"/>
       </defs>
       <use xlink:href="#ArialUnicodeMS-30"/>
      </g>
     </g>
    </g>
    <g id="xtick_2">
     <g id="line2d_3">
      <path d="M 235.641051 321.341875 
L 235.641051 21.935625 
" clip-path="url(#p52e5a52b19)" style="fill: none; stroke: #b0b0b0; stroke-width: 0.8; stroke-linecap: square"/>
     </g>
     <g id="line2d_4">
      <g>
       <use xlink:href="#m9fbeb54d39" x="235.641051" y="321.341875" style="stroke: #000000; stroke-width: 0.8"/>
      </g>
     </g>
     <g id="text_2">
      <!-- 2 -->
      <g transform="translate(232.860582 335.499687) scale(0.1 -0.1)">
       <defs>
        <path id="ArialUnicodeMS-32" d="M 3231 0 
L 197 0 
Q 197 388 467 784 
Q 738 1181 1478 1778 
Q 1931 2141 2287 2539 
Q 2644 2938 2644 3341 
Q 2644 3688 2398 3914 
Q 2153 4141 1778 4141 
Q 1400 4141 1144 3908 
Q 888 3675 884 3213 
L 306 3278 
Q 359 3922 764 4262 
Q 1169 4603 1791 4603 
Q 2466 4603 2842 4229 
Q 3219 3856 3219 3328 
Q 3219 2888 2901 2436 
Q 2584 1984 1638 1228 
Q 1141 831 978 544 
L 3231 544 
L 3231 0 
z
" transform="scale(0.015625)"/>
       </defs>
       <use xlink:href="#ArialUnicodeMS-32"/>
      </g>
     </g>
    </g>
    <g id="xtick_3">
     <g id="line2d_5">
      <path d="M 380.030142 321.341875 
L 380.030142 21.935625 
" clip-path="url(#p52e5a52b19)" style="fill: none; stroke: #b0b0b0; stroke-width: 0.8; stroke-linecap: square"/>
     </g>
     <g id="line2d_6">
      <g>
       <use xlink:href="#m9fbeb54d39" x="380.030142" y="321.341875" style="stroke: #000000; stroke-width: 0.8"/>
      </g>
     </g>
     <g id="text_3">
      <!-- 4 -->
      <g transform="translate(377.249673 335.499687) scale(0.1 -0.1)">
       <defs>
        <path id="ArialUnicodeMS-34" d="M 3263 1094 
L 2644 1094 
L 2644 0 
L 2081 0 
L 2081 1094 
L 97 1094 
L 97 1613 
L 2181 4581 
L 2644 4581 
L 2644 1613 
L 3263 1613 
L 3263 1094 
z
M 2081 1613 
L 2081 3681 
L 2069 3681 
L 647 1613 
L 2081 1613 
z
" transform="scale(0.015625)"/>
       </defs>
       <use xlink:href="#ArialUnicodeMS-34"/>
      </g>
     </g>
    </g>
    <g id="xtick_4">
     <g id="line2d_7">
      <path d="M 524.419233 321.341875 
L 524.419233 21.935625 
" clip-path="url(#p52e5a52b19)" style="fill: none; stroke: #b0b0b0; stroke-width: 0.8; stroke-linecap: square"/>
     </g>
     <g id="line2d_8">
      <g>
       <use xlink:href="#m9fbeb54d39" x="524.419233" y="321.341875" style="stroke: #000000; stroke-width: 0.8"/>
      </g>
     </g>
     <g id="text_4">
      <!-- 6 -->
      <g transform="translate(521.638764 335.499687) scale(0.1 -0.1)">
       <defs>
        <path id="ArialUnicodeMS-36" d="M 838 2363 
Q 1225 2969 1941 2969 
Q 2503 2969 2897 2553 
Q 3291 2138 3291 1491 
Q 3291 838 2898 380 
Q 2506 -78 1856 -78 
Q 1197 -78 733 409 
Q 269 897 269 2144 
Q 269 3369 689 3986 
Q 1109 4603 1906 4603 
Q 2422 4603 2778 4315 
Q 3134 4028 3213 3463 
L 2650 3413 
Q 2497 4141 1875 4141 
Q 1444 4141 1134 3712 
Q 825 3284 825 2363 
L 838 2363 
z
M 1844 384 
Q 2231 384 2472 696 
Q 2713 1009 2713 1453 
Q 2713 1897 2472 2187 
Q 2231 2478 1825 2478 
Q 1453 2478 1184 2204 
Q 916 1931 916 1484 
Q 916 1028 1180 706 
Q 1444 384 1844 384 
z
" transform="scale(0.015625)"/>
       </defs>
       <use xlink:href="#ArialUnicodeMS-36"/>
      </g>
     </g>
    </g>
    <g id="xtick_5">
     <g id="line2d_9">
      <path d="M 668.808324 321.341875 
L 668.808324 21.935625 
" clip-path="url(#p52e5a52b19)" style="fill: none; stroke: #b0b0b0; stroke-width: 0.8; stroke-linecap: square"/>
     </g>
     <g id="line2d_10">
      <g>
       <use xlink:href="#m9fbeb54d39" x="668.808324" y="321.341875" style="stroke: #000000; stroke-width: 0.8"/>
      </g>
     </g>
     <g id="text_5">
      <!-- 8 -->
      <g transform="translate(666.027855 335.499687) scale(0.1 -0.1)">
       <defs>
        <path id="ArialUnicodeMS-38" d="M 2425 2478 
Q 3284 2203 3284 1306 
Q 3284 716 2862 319 
Q 2441 -78 1778 -78 
Q 1109 -78 689 322 
Q 269 722 269 1325 
Q 269 1759 505 2084 
Q 741 2409 1141 2478 
L 1141 2491 
Q 453 2703 453 3419 
Q 453 3925 815 4264 
Q 1178 4603 1766 4603 
Q 2363 4603 2730 4253 
Q 3097 3903 3097 3406 
Q 3097 2731 2425 2491 
L 2425 2478 
z
M 1778 2700 
Q 2094 2700 2308 2901 
Q 2522 3103 2522 3406 
Q 2522 3716 2305 3928 
Q 2088 4141 1772 4141 
Q 1450 4141 1240 3931 
Q 1031 3722 1031 3438 
Q 1031 3097 1247 2898 
Q 1463 2700 1778 2700 
z
M 1778 384 
Q 2175 384 2440 640 
Q 2706 897 2706 1306 
Q 2706 1716 2432 1978 
Q 2159 2241 1766 2241 
Q 1356 2241 1100 1970 
Q 844 1700 844 1319 
Q 844 922 1108 653 
Q 1372 384 1778 384 
z
" transform="scale(0.015625)"/>
       </defs>
       <use xlink:href="#ArialUnicodeMS-38"/>
      </g>
     </g>
    </g>
    <g id="xtick_6">
     <g id="line2d_11">
      <path d="M 813.197415 321.341875 
L 813.197415 21.935625 
" clip-path="url(#p52e5a52b19)" style="fill: none; stroke: #b0b0b0; stroke-width: 0.8; stroke-linecap: square"/>
     </g>
     <g id="line2d_12">
      <g>
       <use xlink:href="#m9fbeb54d39" x="813.197415" y="321.341875" style="stroke: #000000; stroke-width: 0.8"/>
      </g>
     </g>
     <g id="text_6">
      <!-- 10 -->
      <g transform="translate(807.636477 335.499687) scale(0.1 -0.1)">
       <defs>
        <path id="ArialUnicodeMS-31" d="M 2400 0 
L 1838 0 
L 1838 3584 
Q 1416 3184 709 2906 
L 709 3450 
Q 1681 3916 2034 4603 
L 2400 4603 
L 2400 0 
z
" transform="scale(0.015625)"/>
       </defs>
       <use xlink:href="#ArialUnicodeMS-31"/>
       <use xlink:href="#ArialUnicodeMS-30" x="55.615234"/>
      </g>
     </g>
    </g>
    <g id="text_7">
     <!-- Iterations -->
     <g transform="translate(431.659844 348.649687) scale(0.1 -0.1)">
      <defs>
       <path id="ArialUnicodeMS-49" d="M 1197 0 
L 588 0 
L 588 4581 
L 1197 4581 
L 1197 0 
z
" transform="scale(0.015625)"/>
       <path id="ArialUnicodeMS-74" d="M 1722 6 
Q 1472 -44 1300 -44 
Q 931 -44 762 86 
Q 594 216 556 416 
Q 519 616 519 972 
L 519 2881 
L 109 2881 
L 109 3316 
L 519 3316 
L 519 4141 
L 1081 4481 
L 1081 3316 
L 1644 3316 
L 1644 2881 
L 1081 2881 
L 1081 941 
Q 1081 691 1132 586 
Q 1184 481 1394 481 
Q 1516 481 1644 506 
L 1722 6 
z
" transform="scale(0.015625)"/>
       <path id="ArialUnicodeMS-65" d="M 3309 1516 
L 825 1516 
Q 859 966 1139 675 
Q 1419 384 1838 384 
Q 2159 384 2378 554 
Q 2597 725 2713 1069 
L 3291 997 
Q 3150 478 2775 200 
Q 2400 -78 1838 -78 
Q 1091 -78 670 380 
Q 250 838 250 1631 
Q 250 2416 658 2903 
Q 1066 3391 1806 3391 
Q 2169 3391 2505 3231 
Q 2841 3072 3075 2689 
Q 3309 2306 3309 1516 
z
M 2731 1978 
Q 2697 2484 2417 2707 
Q 2138 2931 1806 2931 
Q 1409 2931 1153 2665 
Q 897 2400 856 1978 
L 2731 1978 
z
" transform="scale(0.015625)"/>
       <path id="ArialUnicodeMS-72" d="M 2216 3213 
L 2022 2694 
Q 1813 2816 1613 2816 
Q 1297 2816 1134 2533 
Q 972 2250 972 1741 
L 972 0 
L 409 0 
L 409 3316 
L 922 3316 
L 922 2816 
L 934 2816 
Q 1203 3391 1638 3391 
Q 1925 3391 2216 3213 
z
" transform="scale(0.015625)"/>
       <path id="ArialUnicodeMS-61" d="M 3303 0 
L 2713 0 
Q 2631 156 2597 409 
Q 2031 -78 1375 -78 
Q 850 -78 547 184 
Q 244 447 244 878 
Q 244 1291 536 1558 
Q 828 1825 1550 1913 
L 2075 1991 
Q 2369 2038 2559 2106 
Q 2559 2359 2543 2464 
Q 2528 2569 2451 2681 
Q 2375 2794 2206 2862 
Q 2038 2931 1753 2931 
Q 1391 2931 1180 2797 
Q 969 2663 891 2297 
L 341 2369 
Q 431 2878 806 3134 
Q 1181 3391 1838 3391 
Q 2434 3391 2714 3214 
Q 2994 3038 3058 2788 
Q 3122 2538 3122 2144 
L 3122 1388 
Q 3122 697 3148 461 
Q 3175 225 3303 0 
z
M 2559 1459 
L 2559 1663 
Q 2119 1516 1481 1430 
Q 844 1344 844 891 
Q 844 663 1016 514 
Q 1188 366 1509 366 
Q 1925 366 2242 614 
Q 2559 863 2559 1459 
z
" transform="scale(0.015625)"/>
       <path id="ArialUnicodeMS-69" d="M 991 0 
L 428 0 
L 428 3316 
L 991 3316 
L 991 0 
z
M 991 3944 
L 428 3944 
L 428 4581 
L 991 4581 
L 991 3944 
z
" transform="scale(0.015625)"/>
       <path id="ArialUnicodeMS-6f" d="M 1778 3391 
Q 2450 3391 2892 2953 
Q 3334 2516 3334 1709 
Q 3334 731 2856 326 
Q 2378 -78 1778 -78 
Q 1150 -78 687 337 
Q 225 753 225 1656 
Q 225 2531 672 2961 
Q 1119 3391 1778 3391 
z
M 1778 384 
Q 2259 384 2509 740 
Q 2759 1097 2759 1678 
Q 2759 2300 2476 2615 
Q 2194 2931 1778 2931 
Q 1350 2931 1075 2611 
Q 800 2291 800 1656 
Q 800 1025 1079 704 
Q 1359 384 1778 384 
z
" transform="scale(0.015625)"/>
       <path id="ArialUnicodeMS-6e" d="M 3138 0 
L 2572 0 
L 2572 2016 
Q 2572 2525 2389 2715 
Q 2206 2906 1881 2906 
Q 1631 2906 1407 2784 
Q 1184 2663 1090 2441 
Q 997 2219 997 1813 
L 997 0 
L 434 0 
L 434 3316 
L 941 3316 
L 941 2847 
L 953 2847 
Q 1131 3119 1392 3255 
Q 1653 3391 1997 3391 
Q 2259 3391 2515 3297 
Q 2772 3203 2917 3015 
Q 3063 2828 3100 2615 
Q 3138 2403 3138 2041 
L 3138 0 
z
" transform="scale(0.015625)"/>
       <path id="ArialUnicodeMS-73" d="M 2278 2388 
Q 2241 2659 2058 2795 
Q 1875 2931 1550 2931 
Q 1228 2931 1029 2822 
Q 831 2713 831 2503 
Q 831 2306 989 2222 
Q 1147 2138 1613 2016 
Q 2138 1881 2398 1778 
Q 2659 1675 2804 1489 
Q 2950 1303 2950 972 
Q 2950 528 2587 225 
Q 2225 -78 1619 -78 
Q 988 -78 633 189 
Q 278 456 197 991 
L 756 1075 
Q 800 728 1014 556 
Q 1228 384 1613 384 
Q 1981 384 2178 539 
Q 2375 694 2375 916 
Q 2375 1066 2284 1156 
Q 2194 1247 2058 1292 
Q 1922 1338 1447 1453 
Q 741 1622 514 1862 
Q 288 2103 288 2438 
Q 288 2853 619 3122 
Q 950 3391 1509 3391 
Q 2103 3391 2433 3158 
Q 2763 2925 2828 2463 
L 2278 2388 
z
" transform="scale(0.015625)"/>
      </defs>
      <use xlink:href="#ArialUnicodeMS-49"/>
      <use xlink:href="#ArialUnicodeMS-74" x="27.783203"/>
      <use xlink:href="#ArialUnicodeMS-65" x="55.566406"/>
      <use xlink:href="#ArialUnicodeMS-72" x="111.181641"/>
      <use xlink:href="#ArialUnicodeMS-61" x="144.482422"/>
      <use xlink:href="#ArialUnicodeMS-74" x="200.097656"/>
      <use xlink:href="#ArialUnicodeMS-69" x="227.880859"/>
      <use xlink:href="#ArialUnicodeMS-6f" x="250.097656"/>
      <use xlink:href="#ArialUnicodeMS-6e" x="305.712891"/>
      <use xlink:href="#ArialUnicodeMS-73" x="361.328125"/>
     </g>
    </g>
   </g>
   <g id="matplotlib.axis_2">
    <g id="ytick_1">
     <g id="line2d_13">
      <path d="M 55.154688 311.604559 
L 849.294688 311.604559 
" clip-path="url(#p52e5a52b19)" style="fill: none; stroke: #b0b0b0; stroke-width: 0.8; stroke-linecap: square"/>
     </g>
     <g id="line2d_14">
      <defs>
       <path id="mc25271462c" d="M 0 0 
L -3.5 0 
" style="stroke: #000000; stroke-width: 0.8"/>
      </defs>
      <g>
       <use xlink:href="#mc25271462c" x="55.154688" y="311.604559" style="stroke: #000000; stroke-width: 0.8"/>
      </g>
     </g>
     <g id="text_8">
      <!-- 0 -->
      <g transform="translate(42.59375 315.183465) scale(0.1 -0.1)">
       <use xlink:href="#ArialUnicodeMS-30"/>
      </g>
     </g>
    </g>
    <g id="ytick_2">
     <g id="line2d_15">
      <path d="M 55.154688 263.564124 
L 849.294688 263.564124 
" clip-path="url(#p52e5a52b19)" style="fill: none; stroke: #b0b0b0; stroke-width: 0.8; stroke-linecap: square"/>
     </g>
     <g id="line2d_16">
      <g>
       <use xlink:href="#mc25271462c" x="55.154688" y="263.564124" style="stroke: #000000; stroke-width: 0.8"/>
      </g>
     </g>
     <g id="text_9">
      <!-- 10000 -->
      <g transform="translate(20.35 267.14303) scale(0.1 -0.1)">
       <use xlink:href="#ArialUnicodeMS-31"/>
       <use xlink:href="#ArialUnicodeMS-30" x="55.615234"/>
       <use xlink:href="#ArialUnicodeMS-30" x="111.230469"/>
       <use xlink:href="#ArialUnicodeMS-30" x="166.845703"/>
       <use xlink:href="#ArialUnicodeMS-30" x="222.460938"/>
      </g>
     </g>
    </g>
    <g id="ytick_3">
     <g id="line2d_17">
      <path d="M 55.154688 215.523688 
L 849.294688 215.523688 
" clip-path="url(#p52e5a52b19)" style="fill: none; stroke: #b0b0b0; stroke-width: 0.8; stroke-linecap: square"/>
     </g>
     <g id="line2d_18">
      <g>
       <use xlink:href="#mc25271462c" x="55.154688" y="215.523688" style="stroke: #000000; stroke-width: 0.8"/>
      </g>
     </g>
     <g id="text_10">
      <!-- 20000 -->
      <g transform="translate(20.35 219.102594) scale(0.1 -0.1)">
       <use xlink:href="#ArialUnicodeMS-32"/>
       <use xlink:href="#ArialUnicodeMS-30" x="55.615234"/>
       <use xlink:href="#ArialUnicodeMS-30" x="111.230469"/>
       <use xlink:href="#ArialUnicodeMS-30" x="166.845703"/>
       <use xlink:href="#ArialUnicodeMS-30" x="222.460938"/>
      </g>
     </g>
    </g>
    <g id="ytick_4">
     <g id="line2d_19">
      <path d="M 55.154688 167.483252 
L 849.294688 167.483252 
" clip-path="url(#p52e5a52b19)" style="fill: none; stroke: #b0b0b0; stroke-width: 0.8; stroke-linecap: square"/>
     </g>
     <g id="line2d_20">
      <g>
       <use xlink:href="#mc25271462c" x="55.154688" y="167.483252" style="stroke: #000000; stroke-width: 0.8"/>
      </g>
     </g>
     <g id="text_11">
      <!-- 30000 -->
      <g transform="translate(20.35 171.062159) scale(0.1 -0.1)">
       <defs>
        <path id="ArialUnicodeMS-33" d="M 2425 2478 
Q 2850 2397 3067 2067 
Q 3284 1738 3284 1350 
Q 3284 725 2829 323 
Q 2375 -78 1741 -78 
Q 1134 -78 740 275 
Q 347 628 281 1209 
L 844 1288 
Q 928 834 1151 609 
Q 1375 384 1741 384 
Q 2134 384 2407 661 
Q 2681 938 2681 1338 
Q 2681 1722 2432 1975 
Q 2184 2228 1784 2228 
Q 1622 2228 1388 2169 
L 1453 2663 
Q 1678 2663 1809 2684 
Q 1941 2706 2103 2790 
Q 2266 2875 2372 3033 
Q 2478 3191 2478 3425 
Q 2478 3766 2251 3953 
Q 2025 4141 1728 4141 
Q 1388 4141 1173 3925 
Q 959 3709 903 3309 
L 341 3413 
Q 450 4009 823 4306 
Q 1197 4603 1716 4603 
Q 2288 4603 2670 4258 
Q 3053 3913 3053 3413 
Q 3053 2772 2425 2491 
L 2425 2478 
z
" transform="scale(0.015625)"/>
       </defs>
       <use xlink:href="#ArialUnicodeMS-33"/>
       <use xlink:href="#ArialUnicodeMS-30" x="55.615234"/>
       <use xlink:href="#ArialUnicodeMS-30" x="111.230469"/>
       <use xlink:href="#ArialUnicodeMS-30" x="166.845703"/>
       <use xlink:href="#ArialUnicodeMS-30" x="222.460938"/>
      </g>
     </g>
    </g>
    <g id="ytick_5">
     <g id="line2d_21">
      <path d="M 55.154688 119.442817 
L 849.294688 119.442817 
" clip-path="url(#p52e5a52b19)" style="fill: none; stroke: #b0b0b0; stroke-width: 0.8; stroke-linecap: square"/>
     </g>
     <g id="line2d_22">
      <g>
       <use xlink:href="#mc25271462c" x="55.154688" y="119.442817" style="stroke: #000000; stroke-width: 0.8"/>
      </g>
     </g>
     <g id="text_12">
      <!-- 40000 -->
      <g transform="translate(20.35 123.021723) scale(0.1 -0.1)">
       <use xlink:href="#ArialUnicodeMS-34"/>
       <use xlink:href="#ArialUnicodeMS-30" x="55.615234"/>
       <use xlink:href="#ArialUnicodeMS-30" x="111.230469"/>
       <use xlink:href="#ArialUnicodeMS-30" x="166.845703"/>
       <use xlink:href="#ArialUnicodeMS-30" x="222.460938"/>
      </g>
     </g>
    </g>
    <g id="ytick_6">
     <g id="line2d_23">
      <path d="M 55.154688 71.402381 
L 849.294688 71.402381 
" clip-path="url(#p52e5a52b19)" style="fill: none; stroke: #b0b0b0; stroke-width: 0.8; stroke-linecap: square"/>
     </g>
     <g id="line2d_24">
      <g>
       <use xlink:href="#mc25271462c" x="55.154688" y="71.402381" style="stroke: #000000; stroke-width: 0.8"/>
      </g>
     </g>
     <g id="text_13">
      <!-- 50000 -->
      <g transform="translate(20.35 74.981287) scale(0.1 -0.1)">
       <defs>
        <path id="ArialUnicodeMS-35" d="M 1013 2753 
Q 1431 3041 1881 3041 
Q 2453 3041 2878 2636 
Q 3303 2231 3303 1556 
Q 3303 875 2872 398 
Q 2441 -78 1741 -78 
Q 1169 -78 750 245 
Q 331 569 269 1203 
L 856 1247 
Q 928 813 1162 598 
Q 1397 384 1741 384 
Q 2169 384 2434 707 
Q 2700 1031 2700 1503 
Q 2700 1984 2428 2262 
Q 2156 2541 1728 2541 
Q 1188 2541 897 2100 
L 366 2163 
L 813 4519 
L 3084 4519 
L 3084 3975 
L 1259 3975 
L 1013 2753 
z
" transform="scale(0.015625)"/>
       </defs>
       <use xlink:href="#ArialUnicodeMS-35"/>
       <use xlink:href="#ArialUnicodeMS-30" x="55.615234"/>
       <use xlink:href="#ArialUnicodeMS-30" x="111.230469"/>
       <use xlink:href="#ArialUnicodeMS-30" x="166.845703"/>
       <use xlink:href="#ArialUnicodeMS-30" x="222.460938"/>
      </g>
     </g>
    </g>
    <g id="ytick_7">
     <g id="line2d_25">
      <path d="M 55.154688 23.361946 
L 849.294688 23.361946 
" clip-path="url(#p52e5a52b19)" style="fill: none; stroke: #b0b0b0; stroke-width: 0.8; stroke-linecap: square"/>
     </g>
     <g id="line2d_26">
      <g>
       <use xlink:href="#mc25271462c" x="55.154688" y="23.361946" style="stroke: #000000; stroke-width: 0.8"/>
      </g>
     </g>
     <g id="text_14">
      <!-- 60000 -->
      <g transform="translate(20.35 26.940852) scale(0.1 -0.1)">
       <use xlink:href="#ArialUnicodeMS-36"/>
       <use xlink:href="#ArialUnicodeMS-30" x="55.615234"/>
       <use xlink:href="#ArialUnicodeMS-30" x="111.230469"/>
       <use xlink:href="#ArialUnicodeMS-30" x="166.845703"/>
       <use xlink:href="#ArialUnicodeMS-30" x="222.460938"/>
      </g>
     </g>
    </g>
    <g id="text_15">
     <!-- Score -->
     <g transform="translate(14.357813 184.699687) rotate(-90) scale(0.1 -0.1)">
      <defs>
       <path id="ArialUnicodeMS-53" d="M 3213 3238 
Q 3175 3675 2897 3895 
Q 2619 4116 2100 4116 
Q 1631 4116 1337 3941 
Q 1044 3766 1044 3431 
Q 1044 3134 1270 2989 
Q 1497 2844 2138 2700 
Q 2706 2575 3065 2444 
Q 3425 2313 3681 2036 
Q 3938 1759 3938 1294 
Q 3938 703 3467 312 
Q 2997 -78 2241 -78 
Q 1275 -78 795 353 
Q 316 784 288 1472 
L 863 1522 
Q 903 972 1287 720 
Q 1672 469 2216 469 
Q 2725 469 3039 678 
Q 3353 888 3353 1247 
Q 3353 1622 3025 1794 
Q 2697 1966 1923 2133 
Q 1150 2300 809 2603 
Q 469 2906 469 3391 
Q 469 3941 900 4300 
Q 1331 4659 2075 4659 
Q 2838 4659 3302 4301 
Q 3766 3944 3794 3284 
L 3213 3238 
z
" transform="scale(0.015625)"/>
       <path id="ArialUnicodeMS-63" d="M 3144 1147 
Q 3034 513 2643 217 
Q 2253 -78 1759 -78 
Q 1038 -78 644 395 
Q 250 869 250 1650 
Q 250 2297 476 2686 
Q 703 3075 1043 3233 
Q 1384 3391 1759 3391 
Q 2272 3391 2636 3125 
Q 3000 2859 3084 2344 
L 2541 2259 
Q 2456 2594 2267 2762 
Q 2078 2931 1784 2931 
Q 1313 2931 1069 2597 
Q 825 2263 825 1663 
Q 825 1050 1064 717 
Q 1303 384 1753 384 
Q 2116 384 2323 592 
Q 2531 800 2584 1216 
L 3144 1147 
z
" transform="scale(0.015625)"/>
      </defs>
      <use xlink:href="#ArialUnicodeMS-53"/>
      <use xlink:href="#ArialUnicodeMS-63" x="66.699219"/>
      <use xlink:href="#ArialUnicodeMS-6f" x="116.699219"/>
      <use xlink:href="#ArialUnicodeMS-72" x="172.314453"/>
      <use xlink:href="#ArialUnicodeMS-65" x="205.615234"/>
     </g>
    </g>
   </g>
   <g id="line2d_27">
    <path d="M 91.25196 307.7325 
L 163.446506 292.652607 
L 235.641051 280.527201 
L 307.835597 278.456659 
L 380.030142 272.336307 
L 452.224688 274.546167 
L 524.419233 257.040232 
L 596.613778 253.571713 
L 668.808324 219.472612 
L 741.002869 207.760354 
L 813.197415 152.840528 
" clip-path="url(#p52e5a52b19)" style="fill: none; stroke: #0000ff; stroke-width: 1.5; stroke-linecap: square"/>
   </g>
   <g id="line2d_28">
    <path d="M 91.25196 304.994195 
L 163.446506 283.106973 
L 235.641051 228.32166 
L 307.835597 243.925193 
L 380.030142 229.858954 
L 452.224688 230.589169 
L 524.419233 177.225853 
L 596.613778 177.379582 
L 668.808324 168.136602 
L 741.002869 150.361641 
L 813.197415 35.545 
" clip-path="url(#p52e5a52b19)" style="fill: none; stroke: #ff0000; stroke-width: 1.5; stroke-linecap: square"/>
   </g>
   <g id="patch_3">
    <path d="M 55.154688 321.341875 
L 55.154688 21.935625 
" style="fill: none; stroke: #000000; stroke-width: 0.8; stroke-linejoin: miter; stroke-linecap: square"/>
   </g>
   <g id="patch_4">
    <path d="M 849.294688 321.341875 
L 849.294688 21.935625 
" style="fill: none; stroke: #000000; stroke-width: 0.8; stroke-linejoin: miter; stroke-linecap: square"/>
   </g>
   <g id="patch_5">
    <path d="M 55.154688 321.341875 
L 849.294688 321.341875 
" style="fill: none; stroke: #000000; stroke-width: 0.8; stroke-linejoin: miter; stroke-linecap: square"/>
   </g>
   <g id="patch_6">
    <path d="M 55.154688 21.935625 
L 849.294688 21.935625 
" style="fill: none; stroke: #000000; stroke-width: 0.8; stroke-linejoin: miter; stroke-linecap: square"/>
   </g>
   <g id="text_16">
    <!-- Game Score Progress During Training -->
    <g transform="translate(350.19 15.935625) scale(0.12 -0.12)">
     <defs>
      <path id="ArialUnicodeMS-47" d="M 4569 641 
Q 3703 -78 2675 -78 
Q 1622 -78 976 564 
Q 331 1206 331 2272 
Q 331 2922 595 3483 
Q 859 4044 1373 4351 
Q 1888 4659 2631 4659 
Q 3403 4659 3870 4320 
Q 4338 3981 4500 3303 
L 3956 3150 
Q 3828 3644 3497 3892 
Q 3166 4141 2631 4141 
Q 1803 4141 1381 3634 
Q 959 3128 959 2309 
Q 959 1697 1164 1290 
Q 1369 884 1770 676 
Q 2172 469 2644 469 
Q 3363 469 3981 941 
L 3981 1791 
L 2631 1791 
L 2631 2338 
L 4569 2338 
L 4569 641 
z
" transform="scale(0.015625)"/>
      <path id="ArialUnicodeMS-6d" d="M 4922 0 
L 4359 0 
L 4359 2094 
Q 4359 2325 4328 2489 
Q 4297 2653 4167 2779 
Q 4038 2906 3763 2906 
Q 3431 2906 3190 2675 
Q 2950 2444 2950 1925 
L 2950 0 
L 2388 0 
L 2388 2156 
Q 2388 2588 2236 2747 
Q 2084 2906 1806 2906 
Q 1444 2906 1211 2656 
Q 978 2406 978 1722 
L 978 0 
L 416 0 
L 416 3316 
L 922 3316 
L 922 2853 
L 934 2853 
Q 1272 3391 1925 3391 
Q 2291 3391 2527 3245 
Q 2763 3100 2869 2809 
Q 3238 3391 3891 3391 
Q 4406 3391 4664 3112 
Q 4922 2834 4922 2278 
L 4922 0 
z
" transform="scale(0.015625)"/>
      <path id="ArialUnicodeMS-20" transform="scale(0.015625)"/>
      <path id="ArialUnicodeMS-50" d="M 494 4581 
L 2222 4581 
Q 2631 4581 2926 4540 
Q 3222 4500 3475 4329 
Q 3728 4159 3858 3867 
Q 3988 3575 3988 3256 
Q 3988 2622 3580 2239 
Q 3172 1856 2272 1856 
L 1100 1856 
L 1100 0 
L 494 0 
L 494 4581 
z
M 1100 2400 
L 2278 2400 
Q 3359 2400 3359 3238 
Q 3359 3513 3218 3723 
Q 3078 3934 2873 3986 
Q 2669 4038 2266 4038 
L 1100 4038 
L 1100 2400 
z
" transform="scale(0.015625)"/>
      <path id="ArialUnicodeMS-67" d="M 3144 447 
Q 3144 -259 3003 -607 
Q 2863 -956 2503 -1150 
Q 2144 -1344 1644 -1344 
Q 1081 -1344 706 -1094 
Q 331 -844 331 -275 
L 878 -359 
Q 909 -622 1098 -753 
Q 1288 -884 1638 -884 
Q 2075 -884 2278 -706 
Q 2481 -528 2526 -272 
Q 2572 -16 2572 434 
Q 2206 0 1650 0 
Q 1003 0 611 478 
Q 219 956 219 1684 
Q 219 2416 600 2903 
Q 981 3391 1656 3391 
Q 2244 3391 2613 2919 
L 2625 2919 
L 2625 3316 
L 3144 3316 
L 3144 447 
z
M 1703 459 
Q 2063 459 2341 745 
Q 2619 1031 2619 1703 
Q 2619 2297 2353 2614 
Q 2088 2931 1697 2931 
Q 1297 2931 1045 2606 
Q 794 2281 794 1716 
Q 794 1063 1058 761 
Q 1322 459 1703 459 
z
" transform="scale(0.015625)"/>
      <path id="ArialUnicodeMS-44" d="M 513 4581 
L 2094 4581 
Q 2509 4581 2809 4539 
Q 3109 4497 3382 4333 
Q 3656 4169 3861 3881 
Q 4066 3594 4183 3220 
Q 4300 2847 4300 2316 
Q 4300 1303 3819 651 
Q 3338 0 2163 0 
L 513 0 
L 513 4581 
z
M 1119 544 
L 2100 544 
Q 2400 544 2636 581 
Q 2872 619 3114 784 
Q 3356 950 3515 1328 
Q 3675 1706 3675 2328 
Q 3675 2672 3614 2970 
Q 3553 3269 3389 3514 
Q 3225 3759 3012 3873 
Q 2800 3988 2598 4013 
Q 2397 4038 2081 4038 
L 1119 4038 
L 1119 544 
z
" transform="scale(0.015625)"/>
      <path id="ArialUnicodeMS-75" d="M 3116 0 
L 2613 0 
L 2613 488 
L 2597 488 
Q 2216 -78 1556 -78 
Q 1209 -78 914 83 
Q 619 244 520 526 
Q 422 809 422 1259 
L 422 3316 
L 984 3316 
L 984 1478 
Q 984 1038 1026 847 
Q 1069 656 1247 532 
Q 1425 409 1672 409 
Q 1991 409 2272 629 
Q 2553 850 2553 1544 
L 2553 3316 
L 3116 3316 
L 3116 0 
z
" transform="scale(0.015625)"/>
      <path id="ArialUnicodeMS-54" d="M 3769 4038 
L 2253 4038 
L 2253 0 
L 1644 0 
L 1644 4038 
L 141 4038 
L 141 4581 
L 3769 4581 
L 3769 4038 
z
" transform="scale(0.015625)"/>
     </defs>
     <use xlink:href="#ArialUnicodeMS-47"/>
     <use xlink:href="#ArialUnicodeMS-61" x="77.783203"/>
     <use xlink:href="#ArialUnicodeMS-6d" x="133.398438"/>
     <use xlink:href="#ArialUnicodeMS-65" x="216.699219"/>
     <use xlink:href="#ArialUnicodeMS-20" x="272.314453"/>
     <use xlink:href="#ArialUnicodeMS-53" x="300.097656"/>
     <use xlink:href="#ArialUnicodeMS-63" x="366.796875"/>
     <use xlink:href="#ArialUnicodeMS-6f" x="416.796875"/>
     <use xlink:href="#ArialUnicodeMS-72" x="472.412109"/>
     <use xlink:href="#ArialUnicodeMS-65" x="505.712891"/>
     <use xlink:href="#ArialUnicodeMS-20" x="561.328125"/>
     <use xlink:href="#ArialUnicodeMS-50" x="589.111328"/>
     <use xlink:href="#ArialUnicodeMS-72" x="655.810547"/>
     <use xlink:href="#ArialUnicodeMS-6f" x="689.111328"/>
     <use xlink:href="#ArialUnicodeMS-67" x="744.726562"/>
     <use xlink:href="#ArialUnicodeMS-72" x="800.341797"/>
     <use xlink:href="#ArialUnicodeMS-65" x="833.642578"/>
     <use xlink:href="#ArialUnicodeMS-73" x="889.257812"/>
     <use xlink:href="#ArialUnicodeMS-73" x="939.257812"/>
     <use xlink:href="#ArialUnicodeMS-20" x="989.257812"/>
     <use xlink:href="#ArialUnicodeMS-44" x="1017.041016"/>
     <use xlink:href="#ArialUnicodeMS-75" x="1089.257812"/>
     <use xlink:href="#ArialUnicodeMS-72" x="1144.873047"/>
     <use xlink:href="#ArialUnicodeMS-69" x="1178.173828"/>
     <use xlink:href="#ArialUnicodeMS-6e" x="1200.390625"/>
     <use xlink:href="#ArialUnicodeMS-67" x="1256.005859"/>
     <use xlink:href="#ArialUnicodeMS-20" x="1311.621094"/>
     <use xlink:href="#ArialUnicodeMS-54" x="1339.404297"/>
     <use xlink:href="#ArialUnicodeMS-72" x="1400.488281"/>
     <use xlink:href="#ArialUnicodeMS-61" x="1433.789062"/>
     <use xlink:href="#ArialUnicodeMS-69" x="1489.404297"/>
     <use xlink:href="#ArialUnicodeMS-6e" x="1511.621094"/>
     <use xlink:href="#ArialUnicodeMS-69" x="1567.236328"/>
     <use xlink:href="#ArialUnicodeMS-6e" x="1589.453125"/>
     <use xlink:href="#ArialUnicodeMS-67" x="1645.068359"/>
    </g>
   </g>
   <g id="legend_1">
    <g id="patch_7">
     <path d="M 62.154687 58.465312 
L 160.298437 58.465312 
Q 162.298437 58.465312 162.298437 56.465312 
L 162.298437 28.935625 
Q 162.298437 26.935625 160.298437 26.935625 
L 62.154687 26.935625 
Q 60.154687 26.935625 60.154687 28.935625 
L 60.154687 56.465312 
Q 60.154687 58.465312 62.154687 58.465312 
z
" style="fill: #ffffff; opacity: 0.8; stroke: #cccccc; stroke-linejoin: miter"/>
    </g>
    <g id="line2d_29">
     <path d="M 64.154687 34.715312 
L 74.154687 34.715312 
L 84.154687 34.715312 
" style="fill: none; stroke: #0000ff; stroke-width: 1.5; stroke-linecap: square"/>
    </g>
    <g id="text_17">
     <!-- Average Score -->
     <g transform="translate(92.154687 38.215312) scale(0.1 -0.1)">
      <defs>
       <path id="ArialUnicodeMS-41" d="M 4275 0 
L 3591 0 
L 3053 1394 
L 1141 1394 
L 634 0 
L -6 0 
L 1753 4581 
L 2406 4581 
L 4275 0 
z
M 2869 1875 
Q 2306 3363 2234 3564 
Q 2163 3766 2075 4103 
L 2059 4103 
Q 1972 3641 1825 3247 
L 1313 1875 
L 2869 1875 
z
" transform="scale(0.015625)"/>
       <path id="ArialUnicodeMS-76" d="M 3122 3316 
L 1869 0 
L 1344 0 
L 84 3316 
L 678 3316 
L 1363 1397 
Q 1556 853 1594 659 
L 1606 659 
Q 1656 859 1778 1197 
L 2547 3316 
L 3122 3316 
z
" transform="scale(0.015625)"/>
      </defs>
      <use xlink:href="#ArialUnicodeMS-41"/>
      <use xlink:href="#ArialUnicodeMS-76" x="66.699219"/>
      <use xlink:href="#ArialUnicodeMS-65" x="116.699219"/>
      <use xlink:href="#ArialUnicodeMS-72" x="172.314453"/>
      <use xlink:href="#ArialUnicodeMS-61" x="205.615234"/>
      <use xlink:href="#ArialUnicodeMS-67" x="261.230469"/>
      <use xlink:href="#ArialUnicodeMS-65" x="316.845703"/>
      <use xlink:href="#ArialUnicodeMS-20" x="372.460938"/>
      <use xlink:href="#ArialUnicodeMS-53" x="400.244141"/>
      <use xlink:href="#ArialUnicodeMS-63" x="466.943359"/>
      <use xlink:href="#ArialUnicodeMS-6f" x="516.943359"/>
      <use xlink:href="#ArialUnicodeMS-72" x="572.558594"/>
      <use xlink:href="#ArialUnicodeMS-65" x="605.859375"/>
     </g>
    </g>
    <g id="line2d_30">
     <path d="M 64.154687 48.973125 
L 74.154687 48.973125 
L 84.154687 48.973125 
" style="fill: none; stroke: #ff0000; stroke-width: 1.5; stroke-linecap: square"/>
    </g>
    <g id="text_18">
     <!-- Max Score -->
     <g transform="translate(92.154687 52.473125) scale(0.1 -0.1)">
      <defs>
       <path id="ArialUnicodeMS-4d" d="M 4844 0 
L 4269 0 
L 4269 3834 
L 4256 3834 
L 2938 0 
L 2394 0 
L 1081 3897 
L 1063 3897 
L 1063 0 
L 488 0 
L 488 4581 
L 1394 4581 
L 2478 1338 
Q 2659 797 2688 659 
L 2700 659 
Q 2784 925 2944 1394 
L 4038 4581 
L 4844 4581 
L 4844 0 
z
" transform="scale(0.015625)"/>
       <path id="ArialUnicodeMS-78" d="M 3156 0 
L 2463 0 
L 1600 1313 
L 728 0 
L 44 0 
L 1259 1728 
L 141 3316 
L 838 3316 
Q 1519 2288 1581 2169 
L 2394 3316 
L 3066 3316 
L 1919 1759 
L 3156 0 
z
" transform="scale(0.015625)"/>
      </defs>
      <use xlink:href="#ArialUnicodeMS-4d"/>
      <use xlink:href="#ArialUnicodeMS-61" x="83.300781"/>
      <use xlink:href="#ArialUnicodeMS-78" x="138.916016"/>
      <use xlink:href="#ArialUnicodeMS-20" x="188.916016"/>
      <use xlink:href="#ArialUnicodeMS-53" x="216.699219"/>
      <use xlink:href="#ArialUnicodeMS-63" x="283.398438"/>
      <use xlink:href="#ArialUnicodeMS-6f" x="333.398438"/>
      <use xlink:href="#ArialUnicodeMS-72" x="389.013672"/>
      <use xlink:href="#ArialUnicodeMS-65" x="422.314453"/>
     </g>
    </g>
   </g>
  </g>
  <g id="axes_2">
   <g id="patch_8">
    <path d="M 55.154688 675.975625 
L 849.294688 675.975625 
L 849.294688 376.569375 
L 55.154688 376.569375 
z
" style="fill: #ffffff"/>
   </g>
   <g id="matplotlib.axis_3">
    <g id="xtick_7">
     <g id="line2d_31">
      <path d="M 91.25196 675.975625 
L 91.25196 376.569375 
" clip-path="url(#p1879bce3f6)" style="fill: none; stroke: #b0b0b0; stroke-width: 0.8; stroke-linecap: square"/>
     </g>
     <g id="line2d_32">
      <g>
       <use xlink:href="#m9fbeb54d39" x="91.25196" y="675.975625" style="stroke: #000000; stroke-width: 0.8"/>
      </g>
     </g>
     <g id="text_19">
      <!-- 0 -->
      <g transform="translate(88.471491 690.133437) scale(0.1 -0.1)">
       <use xlink:href="#ArialUnicodeMS-30"/>
      </g>
     </g>
    </g>
    <g id="xtick_8">
     <g id="line2d_33">
      <path d="M 235.641051 675.975625 
L 235.641051 376.569375 
" clip-path="url(#p1879bce3f6)" style="fill: none; stroke: #b0b0b0; stroke-width: 0.8; stroke-linecap: square"/>
     </g>
     <g id="line2d_34">
      <g>
       <use xlink:href="#m9fbeb54d39" x="235.641051" y="675.975625" style="stroke: #000000; stroke-width: 0.8"/>
      </g>
     </g>
     <g id="text_20">
      <!-- 2 -->
      <g transform="translate(232.860582 690.133437) scale(0.1 -0.1)">
       <use xlink:href="#ArialUnicodeMS-32"/>
      </g>
     </g>
    </g>
    <g id="xtick_9">
     <g id="line2d_35">
      <path d="M 380.030142 675.975625 
L 380.030142 376.569375 
" clip-path="url(#p1879bce3f6)" style="fill: none; stroke: #b0b0b0; stroke-width: 0.8; stroke-linecap: square"/>
     </g>
     <g id="line2d_36">
      <g>
       <use xlink:href="#m9fbeb54d39" x="380.030142" y="675.975625" style="stroke: #000000; stroke-width: 0.8"/>
      </g>
     </g>
     <g id="text_21">
      <!-- 4 -->
      <g transform="translate(377.249673 690.133437) scale(0.1 -0.1)">
       <use xlink:href="#ArialUnicodeMS-34"/>
      </g>
     </g>
    </g>
    <g id="xtick_10">
     <g id="line2d_37">
      <path d="M 524.419233 675.975625 
L 524.419233 376.569375 
" clip-path="url(#p1879bce3f6)" style="fill: none; stroke: #b0b0b0; stroke-width: 0.8; stroke-linecap: square"/>
     </g>
     <g id="line2d_38">
      <g>
       <use xlink:href="#m9fbeb54d39" x="524.419233" y="675.975625" style="stroke: #000000; stroke-width: 0.8"/>
      </g>
     </g>
     <g id="text_22">
      <!-- 6 -->
      <g transform="translate(521.638764 690.133437) scale(0.1 -0.1)">
       <use xlink:href="#ArialUnicodeMS-36"/>
      </g>
     </g>
    </g>
    <g id="xtick_11">
     <g id="line2d_39">
      <path d="M 668.808324 675.975625 
L 668.808324 376.569375 
" clip-path="url(#p1879bce3f6)" style="fill: none; stroke: #b0b0b0; stroke-width: 0.8; stroke-linecap: square"/>
     </g>
     <g id="line2d_40">
      <g>
       <use xlink:href="#m9fbeb54d39" x="668.808324" y="675.975625" style="stroke: #000000; stroke-width: 0.8"/>
      </g>
     </g>
     <g id="text_23">
      <!-- 8 -->
      <g transform="translate(666.027855 690.133437) scale(0.1 -0.1)">
       <use xlink:href="#ArialUnicodeMS-38"/>
      </g>
     </g>
    </g>
    <g id="xtick_12">
     <g id="line2d_41">
      <path d="M 813.197415 675.975625 
L 813.197415 376.569375 
" clip-path="url(#p1879bce3f6)" style="fill: none; stroke: #b0b0b0; stroke-width: 0.8; stroke-linecap: square"/>
     </g>
     <g id="line2d_42">
      <g>
       <use xlink:href="#m9fbeb54d39" x="813.197415" y="675.975625" style="stroke: #000000; stroke-width: 0.8"/>
      </g>
     </g>
     <g id="text_24">
      <!-- 10 -->
      <g transform="translate(807.636477 690.133437) scale(0.1 -0.1)">
       <use xlink:href="#ArialUnicodeMS-31"/>
       <use xlink:href="#ArialUnicodeMS-30" x="55.615234"/>
      </g>
     </g>
    </g>
    <g id="text_25">
     <!-- Iterations -->
     <g transform="translate(431.659844 703.283437) scale(0.1 -0.1)">
      <use xlink:href="#ArialUnicodeMS-49"/>
      <use xlink:href="#ArialUnicodeMS-74" x="27.783203"/>
      <use xlink:href="#ArialUnicodeMS-65" x="55.566406"/>
      <use xlink:href="#ArialUnicodeMS-72" x="111.181641"/>
      <use xlink:href="#ArialUnicodeMS-61" x="144.482422"/>
      <use xlink:href="#ArialUnicodeMS-74" x="200.097656"/>
      <use xlink:href="#ArialUnicodeMS-69" x="227.880859"/>
      <use xlink:href="#ArialUnicodeMS-6f" x="250.097656"/>
      <use xlink:href="#ArialUnicodeMS-6e" x="305.712891"/>
      <use xlink:href="#ArialUnicodeMS-73" x="361.328125"/>
     </g>
    </g>
   </g>
   <g id="matplotlib.axis_4">
    <g id="ytick_8">
     <g id="line2d_43">
      <path d="M 55.154688 663.626937 
L 849.294688 663.626937 
" clip-path="url(#p1879bce3f6)" style="fill: none; stroke: #b0b0b0; stroke-width: 0.8; stroke-linecap: square"/>
     </g>
     <g id="line2d_44">
      <g>
       <use xlink:href="#mc25271462c" x="55.154688" y="663.626937" style="stroke: #000000; stroke-width: 0.8"/>
      </g>
     </g>
     <g id="text_26">
      <!-- 0.0 -->
      <g transform="translate(34.254688 667.205843) scale(0.1 -0.1)">
       <defs>
        <path id="ArialUnicodeMS-2e" d="M 1209 0 
L 569 0 
L 569 641 
L 1209 641 
L 1209 0 
z
" transform="scale(0.015625)"/>
       </defs>
       <use xlink:href="#ArialUnicodeMS-30"/>
       <use xlink:href="#ArialUnicodeMS-2e" x="55.615234"/>
       <use xlink:href="#ArialUnicodeMS-30" x="83.398438"/>
      </g>
     </g>
    </g>
    <g id="ytick_9">
     <g id="line2d_45">
      <path d="M 55.154688 629.087568 
L 849.294688 629.087568 
" clip-path="url(#p1879bce3f6)" style="fill: none; stroke: #b0b0b0; stroke-width: 0.8; stroke-linecap: square"/>
     </g>
     <g id="line2d_46">
      <g>
       <use xlink:href="#mc25271462c" x="55.154688" y="629.087568" style="stroke: #000000; stroke-width: 0.8"/>
      </g>
     </g>
     <g id="text_27">
      <!-- 0.2 -->
      <g transform="translate(34.254688 632.666474) scale(0.1 -0.1)">
       <use xlink:href="#ArialUnicodeMS-30"/>
       <use xlink:href="#ArialUnicodeMS-2e" x="55.615234"/>
       <use xlink:href="#ArialUnicodeMS-32" x="83.398438"/>
      </g>
     </g>
    </g>
    <g id="ytick_10">
     <g id="line2d_47">
      <path d="M 55.154688 594.548198 
L 849.294688 594.548198 
" clip-path="url(#p1879bce3f6)" style="fill: none; stroke: #b0b0b0; stroke-width: 0.8; stroke-linecap: square"/>
     </g>
     <g id="line2d_48">
      <g>
       <use xlink:href="#mc25271462c" x="55.154688" y="594.548198" style="stroke: #000000; stroke-width: 0.8"/>
      </g>
     </g>
     <g id="text_28">
      <!-- 0.4 -->
      <g transform="translate(34.254688 598.127105) scale(0.1 -0.1)">
       <use xlink:href="#ArialUnicodeMS-30"/>
       <use xlink:href="#ArialUnicodeMS-2e" x="55.615234"/>
       <use xlink:href="#ArialUnicodeMS-34" x="83.398438"/>
      </g>
     </g>
    </g>
    <g id="ytick_11">
     <g id="line2d_49">
      <path d="M 55.154688 560.008829 
L 849.294688 560.008829 
" clip-path="url(#p1879bce3f6)" style="fill: none; stroke: #b0b0b0; stroke-width: 0.8; stroke-linecap: square"/>
     </g>
     <g id="line2d_50">
      <g>
       <use xlink:href="#mc25271462c" x="55.154688" y="560.008829" style="stroke: #000000; stroke-width: 0.8"/>
      </g>
     </g>
     <g id="text_29">
      <!-- 0.6 -->
      <g transform="translate(34.254688 563.587735) scale(0.1 -0.1)">
       <use xlink:href="#ArialUnicodeMS-30"/>
       <use xlink:href="#ArialUnicodeMS-2e" x="55.615234"/>
       <use xlink:href="#ArialUnicodeMS-36" x="83.398438"/>
      </g>
     </g>
    </g>
    <g id="ytick_12">
     <g id="line2d_51">
      <path d="M 55.154688 525.46946 
L 849.294688 525.46946 
" clip-path="url(#p1879bce3f6)" style="fill: none; stroke: #b0b0b0; stroke-width: 0.8; stroke-linecap: square"/>
     </g>
     <g id="line2d_52">
      <g>
       <use xlink:href="#mc25271462c" x="55.154688" y="525.46946" style="stroke: #000000; stroke-width: 0.8"/>
      </g>
     </g>
     <g id="text_30">
      <!-- 0.8 -->
      <g transform="translate(34.254688 529.048366) scale(0.1 -0.1)">
       <use xlink:href="#ArialUnicodeMS-30"/>
       <use xlink:href="#ArialUnicodeMS-2e" x="55.615234"/>
       <use xlink:href="#ArialUnicodeMS-38" x="83.398438"/>
      </g>
     </g>
    </g>
    <g id="ytick_13">
     <g id="line2d_53">
      <path d="M 55.154688 490.93009 
L 849.294688 490.93009 
" clip-path="url(#p1879bce3f6)" style="fill: none; stroke: #b0b0b0; stroke-width: 0.8; stroke-linecap: square"/>
     </g>
     <g id="line2d_54">
      <g>
       <use xlink:href="#mc25271462c" x="55.154688" y="490.93009" style="stroke: #000000; stroke-width: 0.8"/>
      </g>
     </g>
     <g id="text_31">
      <!-- 1.0 -->
      <g transform="translate(34.254688 494.508997) scale(0.1 -0.1)">
       <use xlink:href="#ArialUnicodeMS-31"/>
       <use xlink:href="#ArialUnicodeMS-2e" x="55.615234"/>
       <use xlink:href="#ArialUnicodeMS-30" x="83.398438"/>
      </g>
     </g>
    </g>
    <g id="ytick_14">
     <g id="line2d_55">
      <path d="M 55.154688 456.390721 
L 849.294688 456.390721 
" clip-path="url(#p1879bce3f6)" style="fill: none; stroke: #b0b0b0; stroke-width: 0.8; stroke-linecap: square"/>
     </g>
     <g id="line2d_56">
      <g>
       <use xlink:href="#mc25271462c" x="55.154688" y="456.390721" style="stroke: #000000; stroke-width: 0.8"/>
      </g>
     </g>
     <g id="text_32">
      <!-- 1.2 -->
      <g transform="translate(34.254688 459.969627) scale(0.1 -0.1)">
       <use xlink:href="#ArialUnicodeMS-31"/>
       <use xlink:href="#ArialUnicodeMS-2e" x="55.615234"/>
       <use xlink:href="#ArialUnicodeMS-32" x="83.398438"/>
      </g>
     </g>
    </g>
    <g id="ytick_15">
     <g id="line2d_57">
      <path d="M 55.154688 421.851352 
L 849.294688 421.851352 
" clip-path="url(#p1879bce3f6)" style="fill: none; stroke: #b0b0b0; stroke-width: 0.8; stroke-linecap: square"/>
     </g>
     <g id="line2d_58">
      <g>
       <use xlink:href="#mc25271462c" x="55.154688" y="421.851352" style="stroke: #000000; stroke-width: 0.8"/>
      </g>
     </g>
     <g id="text_33">
      <!-- 1.4 -->
      <g transform="translate(34.254688 425.430258) scale(0.1 -0.1)">
       <use xlink:href="#ArialUnicodeMS-31"/>
       <use xlink:href="#ArialUnicodeMS-2e" x="55.615234"/>
       <use xlink:href="#ArialUnicodeMS-34" x="83.398438"/>
      </g>
     </g>
    </g>
    <g id="ytick_16">
     <g id="line2d_59">
      <path d="M 55.154688 387.311982 
L 849.294688 387.311982 
" clip-path="url(#p1879bce3f6)" style="fill: none; stroke: #b0b0b0; stroke-width: 0.8; stroke-linecap: square"/>
     </g>
     <g id="line2d_60">
      <g>
       <use xlink:href="#mc25271462c" x="55.154688" y="387.311982" style="stroke: #000000; stroke-width: 0.8"/>
      </g>
     </g>
     <g id="text_34">
      <!-- 1.6 -->
      <g transform="translate(34.254688 390.890889) scale(0.1 -0.1)">
       <use xlink:href="#ArialUnicodeMS-31"/>
       <use xlink:href="#ArialUnicodeMS-2e" x="55.615234"/>
       <use xlink:href="#ArialUnicodeMS-36" x="83.398438"/>
      </g>
     </g>
    </g>
    <g id="text_35">
     <!-- Loss -->
     <g transform="translate(28.2625 536.833437) rotate(-90) scale(0.1 -0.1)">
      <defs>
       <path id="ArialUnicodeMS-4c" d="M 3347 0 
L 481 0 
L 481 4581 
L 1088 4581 
L 1088 544 
L 3347 544 
L 3347 0 
z
" transform="scale(0.015625)"/>
      </defs>
      <use xlink:href="#ArialUnicodeMS-4c"/>
      <use xlink:href="#ArialUnicodeMS-6f" x="55.615234"/>
      <use xlink:href="#ArialUnicodeMS-73" x="111.230469"/>
      <use xlink:href="#ArialUnicodeMS-73" x="161.230469"/>
     </g>
    </g>
   </g>
   <g id="line2d_61">
    <path d="M 91.25196 435.269897 
L 163.446506 457.875914 
L 235.641051 476.199049 
L 307.835597 501.533677 
L 380.030142 519.874082 
L 452.224688 550.907705 
L 524.419233 561.822146 
L 596.613778 566.674927 
L 668.808324 573.548262 
L 741.002869 576.535917 
L 813.197415 570.111595 
" clip-path="url(#p1879bce3f6)" style="fill: none; stroke: #008000; stroke-width: 1.5; stroke-linecap: square"/>
   </g>
   <g id="line2d_62">
    <path d="M 91.25196 657.548008 
L 163.446506 662.36625 
L 235.641051 659.585831 
L 307.835597 660.604742 
L 380.030142 661.001945 
L 452.224688 660.846518 
L 524.419233 656.995378 
L 596.613778 654.042262 
L 668.808324 639.656615 
L 741.002869 638.585894 
L 813.197415 390.17875 
" clip-path="url(#p1879bce3f6)" style="fill: none; stroke: #800080; stroke-width: 1.5; stroke-linecap: square"/>
   </g>
   <g id="patch_9">
    <path d="M 55.154688 675.975625 
L 55.154688 376.569375 
" style="fill: none; stroke: #000000; stroke-width: 0.8; stroke-linejoin: miter; stroke-linecap: square"/>
   </g>
   <g id="patch_10">
    <path d="M 849.294688 675.975625 
L 849.294688 376.569375 
" style="fill: none; stroke: #000000; stroke-width: 0.8; stroke-linejoin: miter; stroke-linecap: square"/>
   </g>
   <g id="patch_11">
    <path d="M 55.154688 675.975625 
L 849.294688 675.975625 
" style="fill: none; stroke: #000000; stroke-width: 0.8; stroke-linejoin: miter; stroke-linecap: square"/>
   </g>
   <g id="patch_12">
    <path d="M 55.154688 376.569375 
L 849.294688 376.569375 
" style="fill: none; stroke: #000000; stroke-width: 0.8; stroke-linejoin: miter; stroke-linecap: square"/>
   </g>
   <g id="text_36">
    <!-- Loss Function Changes During Training -->
    <g transform="translate(346.508438 370.569375) scale(0.12 -0.12)">
     <defs>
      <path id="ArialUnicodeMS-46" d="M 3603 4038 
L 1119 4038 
L 1119 2619 
L 3272 2619 
L 3272 2075 
L 1119 2075 
L 1119 0 
L 513 0 
L 513 4581 
L 3603 4581 
L 3603 4038 
z
" transform="scale(0.015625)"/>
      <path id="ArialUnicodeMS-43" d="M 4372 1453 
Q 4172 681 3673 301 
Q 3175 -78 2478 -78 
Q 1353 -78 839 626 
Q 325 1331 325 2322 
Q 325 3419 929 4039 
Q 1534 4659 2484 4659 
Q 3153 4659 3628 4318 
Q 4103 3978 4294 3322 
L 3700 3181 
Q 3550 3659 3244 3900 
Q 2938 4141 2478 4141 
Q 1728 4141 1340 3648 
Q 953 3156 953 2328 
Q 953 1372 1361 906 
Q 1769 441 2425 441 
Q 2963 441 3298 731 
Q 3634 1022 3769 1606 
L 4372 1453 
z
" transform="scale(0.015625)"/>
      <path id="ArialUnicodeMS-68" d="M 3138 0 
L 2572 0 
L 2572 2094 
Q 2572 2500 2397 2703 
Q 2222 2906 1875 2906 
Q 1531 2906 1261 2667 
Q 991 2428 991 1813 
L 991 0 
L 428 0 
L 428 4581 
L 991 4581 
L 991 2938 
Q 1391 3391 1991 3391 
Q 2313 3391 2606 3259 
Q 2900 3128 3019 2856 
Q 3138 2584 3138 2100 
L 3138 0 
z
" transform="scale(0.015625)"/>
     </defs>
     <use xlink:href="#ArialUnicodeMS-4c"/>
     <use xlink:href="#ArialUnicodeMS-6f" x="55.615234"/>
     <use xlink:href="#ArialUnicodeMS-73" x="111.230469"/>
     <use xlink:href="#ArialUnicodeMS-73" x="161.230469"/>
     <use xlink:href="#ArialUnicodeMS-20" x="211.230469"/>
     <use xlink:href="#ArialUnicodeMS-46" x="239.013672"/>
     <use xlink:href="#ArialUnicodeMS-75" x="300.097656"/>
     <use xlink:href="#ArialUnicodeMS-6e" x="355.712891"/>
     <use xlink:href="#ArialUnicodeMS-63" x="411.328125"/>
     <use xlink:href="#ArialUnicodeMS-74" x="461.328125"/>
     <use xlink:href="#ArialUnicodeMS-69" x="489.111328"/>
     <use xlink:href="#ArialUnicodeMS-6f" x="511.328125"/>
     <use xlink:href="#ArialUnicodeMS-6e" x="566.943359"/>
     <use xlink:href="#ArialUnicodeMS-20" x="622.558594"/>
     <use xlink:href="#ArialUnicodeMS-43" x="650.341797"/>
     <use xlink:href="#ArialUnicodeMS-68" x="722.558594"/>
     <use xlink:href="#ArialUnicodeMS-61" x="778.173828"/>
     <use xlink:href="#ArialUnicodeMS-6e" x="833.789062"/>
     <use xlink:href="#ArialUnicodeMS-67" x="889.404297"/>
     <use xlink:href="#ArialUnicodeMS-65" x="945.019531"/>
     <use xlink:href="#ArialUnicodeMS-73" x="1000.634766"/>
     <use xlink:href="#ArialUnicodeMS-20" x="1050.634766"/>
     <use xlink:href="#ArialUnicodeMS-44" x="1078.417969"/>
     <use xlink:href="#ArialUnicodeMS-75" x="1150.634766"/>
     <use xlink:href="#ArialUnicodeMS-72" x="1206.25"/>
     <use xlink:href="#ArialUnicodeMS-69" x="1239.550781"/>
     <use xlink:href="#ArialUnicodeMS-6e" x="1261.767578"/>
     <use xlink:href="#ArialUnicodeMS-67" x="1317.382812"/>
     <use xlink:href="#ArialUnicodeMS-20" x="1372.998047"/>
     <use xlink:href="#ArialUnicodeMS-54" x="1400.78125"/>
     <use xlink:href="#ArialUnicodeMS-72" x="1461.865234"/>
     <use xlink:href="#ArialUnicodeMS-61" x="1495.166016"/>
     <use xlink:href="#ArialUnicodeMS-69" x="1550.78125"/>
     <use xlink:href="#ArialUnicodeMS-6e" x="1572.998047"/>
     <use xlink:href="#ArialUnicodeMS-69" x="1628.613281"/>
     <use xlink:href="#ArialUnicodeMS-6e" x="1650.830078"/>
     <use xlink:href="#ArialUnicodeMS-67" x="1706.445312"/>
    </g>
   </g>
   <g id="legend_2">
    <g id="patch_13">
     <path d="M 62.154687 412.977187 
L 144.729688 412.977187 
Q 146.729688 412.977187 146.729688 410.977187 
L 146.729688 383.569375 
Q 146.729688 381.569375 144.729688 381.569375 
L 62.154687 381.569375 
Q 60.154687 381.569375 60.154687 383.569375 
L 60.154687 410.977187 
Q 60.154687 412.977187 62.154687 412.977187 
z
" style="fill: #ffffff; opacity: 0.8; stroke: #cccccc; stroke-linejoin: miter"/>
    </g>
    <g id="line2d_63">
     <path d="M 64.154687 389.227187 
L 74.154687 389.227187 
L 84.154687 389.227187 
" style="fill: none; stroke: #008000; stroke-width: 1.5; stroke-linecap: square"/>
    </g>
    <g id="text_37">
     <!-- Policy Loss -->
     <g transform="translate(92.154687 392.727187) scale(0.1 -0.1)">
      <defs>
       <path id="ArialUnicodeMS-6c" d="M 991 0 
L 428 0 
L 428 4581 
L 991 4581 
L 991 0 
z
" transform="scale(0.015625)"/>
       <path id="ArialUnicodeMS-79" d="M 3150 3316 
L 1881 -56 
Q 1878 -63 1875 -78 
Q 1694 -641 1451 -992 
Q 1209 -1344 763 -1344 
Q 613 -1344 397 -1281 
L 341 -750 
Q 503 -800 659 -800 
Q 972 -800 1092 -628 
Q 1213 -456 1363 -6 
L 103 3316 
L 709 3316 
L 1491 1144 
Q 1559 944 1638 628 
L 1650 628 
Q 1728 991 1850 1319 
L 2578 3316 
L 3150 3316 
z
" transform="scale(0.015625)"/>
      </defs>
      <use xlink:href="#ArialUnicodeMS-50"/>
      <use xlink:href="#ArialUnicodeMS-6f" x="66.699219"/>
      <use xlink:href="#ArialUnicodeMS-6c" x="122.314453"/>
      <use xlink:href="#ArialUnicodeMS-69" x="144.53125"/>
      <use xlink:href="#ArialUnicodeMS-63" x="166.748047"/>
      <use xlink:href="#ArialUnicodeMS-79" x="216.748047"/>
      <use xlink:href="#ArialUnicodeMS-20" x="266.748047"/>
      <use xlink:href="#ArialUnicodeMS-4c" x="294.53125"/>
      <use xlink:href="#ArialUnicodeMS-6f" x="350.146484"/>
      <use xlink:href="#ArialUnicodeMS-73" x="405.761719"/>
      <use xlink:href="#ArialUnicodeMS-73" x="455.761719"/>
     </g>
    </g>
    <g id="line2d_64">
     <path d="M 64.154687 403.485 
L 74.154687 403.485 
L 84.154687 403.485 
" style="fill: none; stroke: #800080; stroke-width: 1.5; stroke-linecap: square"/>
    </g>
    <g id="text_38">
     <!-- Value Loss -->
     <g transform="translate(92.154687 406.985) scale(0.1 -0.1)">
      <defs>
       <path id="ArialUnicodeMS-56" d="M 4225 4581 
L 2431 0 
L 1813 0 
L 38 4581 
L 691 4581 
L 1881 1253 
Q 2016 934 2119 506 
L 2131 506 
Q 2225 872 2369 1253 
L 3609 4581 
L 4225 4581 
z
" transform="scale(0.015625)"/>
      </defs>
      <use xlink:href="#ArialUnicodeMS-56"/>
      <use xlink:href="#ArialUnicodeMS-61" x="66.699219"/>
      <use xlink:href="#ArialUnicodeMS-6c" x="122.314453"/>
      <use xlink:href="#ArialUnicodeMS-75" x="144.53125"/>
      <use xlink:href="#ArialUnicodeMS-65" x="200.146484"/>
      <use xlink:href="#ArialUnicodeMS-20" x="255.761719"/>
      <use xlink:href="#ArialUnicodeMS-4c" x="283.544922"/>
      <use xlink:href="#ArialUnicodeMS-6f" x="339.160156"/>
      <use xlink:href="#ArialUnicodeMS-73" x="394.775391"/>
      <use xlink:href="#ArialUnicodeMS-73" x="444.775391"/>
     </g>
    </g>
   </g>
  </g>
 </g>
 <defs>
  <clipPath id="p52e5a52b19">
   <rect x="55.154688" y="21.935625" width="794.14" height="299.40625"/>
  </clipPath>
  <clipPath id="p1879bce3f6">
   <rect x="55.154688" y="376.569375" width="794.14" height="299.40625"/>
  </clipPath>
 </defs>
</svg>
